<?xml version="1.0" standalone="no"?>
<!DOCTYPE svg PUBLIC "-//W3C//DTD SVG 20010904//EN"
 "http://www.w3.org/TR/2001/REC-SVG-20010904/DTD/svg10.dtd">
<svg version="1.0" xmlns="http://www.w3.org/2000/svg"
 width="899.000000pt" height="328.000000pt" viewBox="0 0 899.000000 328.000000"
 preserveAspectRatio="xMidYMid meet">

<g transform="translate(0.000000,328.000000) scale(0.100000,-0.100000)"
fill="#000000" stroke="none">
<path d="M1240 2955 c-298 -50 -554 -185 -760 -401 -180 -188 -299 -422 -345
-679 -21 -117 -21 -351 -1 -467 98 -544 505 -963 1048 -1079 135 -29 380 -32
510 -6 316 63 607 236 798 474 203 252 300 525 300 843 0 342 -119 648 -354
907 -186 206 -490 364 -781 408 -119 18 -311 18 -415 0z m-37 -777 c77 -25
121 -54 183 -119 49 -53 86 -117 99 -171 l7 -28 -124 0 -125 0 -24 38 c-36 56
-96 82 -189 82 -114 -1 -191 -46 -243 -144 -29 -56 -37 -260 -13 -334 38 -112
120 -181 229 -189 114 -9 197 33 231 117 l16 40 114 0 c68 0 117 -4 121 -10
10 -16 -24 -109 -60 -165 -87 -137 -221 -205 -401 -205 -156 0 -295 68 -386
187 -76 101 -91 152 -96 335 -5 176 3 230 49 326 40 83 135 179 214 217 118
55 274 65 398 23z m926 -21 c113 -44 166 -127 165 -262 0 -62 -5 -90 -23 -127
-22 -45 -81 -98 -112 -98 -7 -1 4 -7 26 -15 53 -19 111 -82 125 -136 7 -25 10
-81 8 -130 -3 -72 -9 -94 -35 -140 -17 -31 -47 -65 -70 -81 -72 -49 -132 -58
-399 -58 -211 0 -243 2 -248 16 -3 9 -6 244 -6 523 0 392 3 510 13 520 20 21
498 10 556 -12z"/>
<path d="M1774 1957 c-3 -8 -3 -56 -2 -108 l3 -94 120 -3 c105 -2 124 0 152
17 58 36 64 148 10 186 -29 20 -275 22 -283 2z"/>
<path d="M1774 1547 c-2 -7 -3 -60 -2 -118 l3 -104 115 -3 c139 -4 184 7 210
51 38 62 16 147 -44 172 -48 20 -274 21 -282 2z"/>
<path d="M3324 2190 c-88 -27 -181 -123 -204 -212 -7 -26 -10 -153 -8 -361 3
-312 4 -323 26 -364 35 -66 79 -110 140 -140 51 -25 68 -28 157 -28 114 0 164
17 232 78 58 53 86 116 91 210 4 60 1 81 -9 88 -16 10 -132 12 -177 3 -29 -6
-30 -7 -34 -75 -5 -84 -24 -109 -90 -116 -40 -5 -49 -2 -79 25 l-34 30 0 312
0 312 33 29 c36 33 77 37 121 14 36 -18 43 -35 50 -115 l6 -65 105 0 105 0 0
90 c-1 103 -18 146 -82 206 -66 64 -115 82 -223 86 -52 1 -109 -2 -126 -7z"/>
<path d="M3857 2174 c-4 -4 -7 -242 -7 -529 0 -431 2 -525 14 -534 9 -8 86
-11 257 -9 l244 3 0 90 0 90 -152 3 -153 3 -2 442 -3 442 -95 3 c-53 1 -99 0
-103 -4z"/>
<path d="M4465 2168 c-3 -7 -4 -249 -3 -538 l3 -525 258 -3 257 -2 0 95 0 95
-150 0 -150 0 0 133 0 132 142 0 143 0 0 85 0 85 -142 3 -143 3 0 134 0 134
148 3 147 3 3 88 3 87 -256 0 c-195 0 -257 -3 -260 -12z"/>
<path d="M5345 2171 c-3 -6 -66 -239 -141 -518 -74 -279 -137 -516 -140 -526
-5 -16 3 -17 108 -15 l113 3 25 108 24 107 111 0 112 0 24 -107 24 -108 113
-3 c102 -2 112 -1 111 15 0 10 -62 250 -137 533 l-137 515 -102 3 c-60 2 -104
-1 -108 -7z m141 -498 c19 -87 34 -163 34 -170 0 -9 -21 -12 -75 -10 -41 1
-75 4 -75 7 -1 17 74 339 78 336 2 -3 20 -76 38 -163z"/>
<path d="M5930 1645 l0 -535 33 -1 c17 -1 49 -2 70 -3 20 -2 53 0 73 3 l36 6
0 298 c-1 163 2 297 6 297 6 0 39 -85 202 -525 l26 -70 117 -3 117 -3 0 536 0
535 -105 0 -105 0 0 -317 c0 -175 -4 -313 -9 -307 -4 5 -52 128 -106 274 -54
146 -106 284 -116 308 l-18 42 -111 0 -110 0 0 -535z"/>
<path d="M6772 1643 l3 -538 205 0 c186 0 212 2 279 23 59 19 83 33 120 70 67
68 96 180 71 283 -15 62 -75 129 -133 148 -21 7 -37 16 -36 19 0 4 21 21 47
37 70 45 97 105 97 215 0 101 -24 160 -86 213 -63 54 -91 60 -342 64 l-227 5
2 -539z m410 328 c28 -25 32 -35 36 -93 4 -58 2 -67 -23 -96 -31 -37 -77 -52
-157 -52 l-58 0 0 135 0 135 85 0 c79 0 87 -2 117 -29z m1 -432 c39 -16 57
-57 57 -130 0 -56 -3 -64 -34 -95 -34 -34 -34 -34 -130 -34 l-96 0 0 133 c0
74 3 137 6 140 10 10 166 -2 197 -14z"/>
<path d="M7869 2173 c0 -5 -1 -203 -2 -441 l-2 -434 -24 -19 c-29 -24 -43 -24
-72 0 -20 16 -25 31 -29 93 l-5 73 -105 0 -105 0 -3 -88 c-2 -76 1 -96 21
-141 41 -90 127 -136 252 -136 93 0 159 24 210 75 74 73 75 83 75 587 l0 438
-105 0 c-58 0 -105 -3 -106 -7z"/>
<path d="M8500 1740 c0 -433 0 -440 -21 -461 -15 -15 -28 -19 -47 -14 -47 11
-56 29 -57 107 l0 73 -104 3 c-63 2 -108 -1 -115 -8 -16 -16 -11 -154 8 -204
40 -103 153 -163 293 -154 127 8 216 69 243 167 6 22 10 215 10 484 l0 447
-105 0 -105 0 0 -440z"/>
</g>
</svg>
