<?xml version="1.0" standalone="no"?>
<!DOCTYPE svg PUBLIC "-//W3C//DTD SVG 20010904//EN"
 "http://www.w3.org/TR/2001/REC-SVG-20010904/DTD/svg10.dtd">
<svg version="1.0" xmlns="http://www.w3.org/2000/svg"
 width="877.000000pt" height="291.000000pt" viewBox="0 0 877.000000 291.000000"
 preserveAspectRatio="xMidYMid meet">

<g transform="translate(0.000000,291.000000) scale(0.100000,-0.100000)"
fill="#000000" stroke="none">
<path d="M1158 2730 c-202 -32 -423 -126 -578 -245 -86 -66 -234 -226 -291
-312 -98 -151 -165 -315 -195 -483 -20 -110 -20 -338 0 -450 70 -391 340 -752
695 -930 77 -38 239 -92 336 -111 43 -9 133 -14 235 -13 244 0 373 30 580 134
352 177 606 510 680 890 40 204 35 367 -15 567 -84 328 -327 641 -625 803
-104 57 -233 107 -337 131 -100 23 -386 34 -485 19z m-27 -772 c76 -38 127
-84 187 -171 l51 -75 -87 -31 -87 -32 -15 23 c-62 92 -115 122 -221 123 -67 0
-81 -3 -125 -30 -54 -34 -107 -104 -126 -168 -7 -23 -13 -87 -13 -142 1 -82 5
-109 23 -149 35 -76 67 -112 126 -141 115 -56 252 -24 320 76 35 51 28 51 134
3 l74 -34 -49 -61 c-129 -164 -259 -227 -421 -202 -226 35 -385 224 -399 474
-10 177 41 324 152 435 101 102 183 135 325 131 80 -2 105 -7 151 -29z m893
-8 c62 -30 118 -86 147 -148 28 -57 31 -161 7 -207 -17 -32 -71 -86 -102 -103
-18 -9 -17 -11 11 -26 49 -25 100 -92 113 -148 36 -147 -49 -312 -178 -348
-21 -5 -146 -10 -289 -10 l-253 0 0 511 0 511 248 -4 c238 -3 249 -4 296 -28z"/>
<path d="M1665 1680 l0 -110 130 0 c152 0 187 13 204 74 14 52 -3 103 -42 126
-27 17 -51 20 -162 20 l-130 0 0 -110z"/>
<path d="M1668 1260 l3 -120 112 0 c131 0 178 11 207 47 29 37 35 68 21 114
-20 67 -52 79 -211 79 l-135 0 3 -120z"/>
<path d="M3388 2048 c-169 -22 -326 -182 -373 -379 -17 -73 -20 -280 -5 -349
32 -145 143 -289 270 -349 49 -23 67 -26 155 -25 78 1 113 6 160 24 159 61
267 176 282 299 l5 48 -58 7 c-33 4 -76 9 -96 12 -35 5 -38 4 -58 -36 -56
-109 -172 -174 -268 -150 -143 35 -219 171 -210 376 3 84 8 109 34 164 52 111
130 170 224 170 86 0 176 -62 216 -149 l19 -40 103 -1 102 0 -6 28 c-27 122
-90 217 -186 282 -92 61 -195 84 -310 68z"/>
<path d="M4000 1510 l0 -540 96 0 97 0 -7 38 c-3 20 -6 263 -6 540 l0 502 -90
0 -90 0 0 -540z"/>
<path d="M6656 1497 l1 -532 254 0 c238 1 257 2 310 23 203 81 260 329 108
466 -21 20 -50 38 -64 42 -30 7 -32 20 -5 29 32 10 96 92 110 140 30 107 -6
233 -87 305 -64 56 -90 60 -374 60 l-254 0 1 -533z m477 339 c55 -37 72 -107
41 -171 -25 -53 -63 -65 -203 -65 l-121 0 0 133 0 132 127 -5 c103 -4 133 -9
156 -24z m15 -430 c46 -24 72 -71 72 -128 0 -39 -6 -54 -31 -82 -40 -46 -79
-56 -221 -56 l-118 0 0 146 0 146 133 -4 c100 -3 140 -8 165 -22z"/>
<path d="M7858 1616 l-3 -415 -29 -30 c-24 -25 -38 -31 -73 -31 -50 0 -80 24
-90 72 l-6 30 -65 -5 c-73 -6 -92 -20 -92 -71 0 -89 57 -171 138 -203 31 -12
73 -18 122 -18 132 1 226 64 270 183 19 50 20 79 20 477 l0 425 -95 0 -94 0
-3 -414z"/>
<path d="M8480 1648 c0 -243 -4 -397 -11 -422 -15 -56 -49 -86 -97 -86 -47 0
-70 16 -81 55 -8 30 -8 30 -76 28 -77 -3 -85 -9 -85 -66 0 -76 48 -149 125
-190 62 -33 183 -30 251 6 29 14 68 45 88 68 67 79 68 92 70 565 l1 424 -92 0
-93 0 0 -382z"/>
<path d="M4547 1760 c-100 -25 -189 -97 -227 -183 -46 -104 -46 -329 -1 -433
30 -67 102 -137 174 -170 52 -23 75 -28 144 -27 95 1 164 27 231 88 41 36 101
140 89 152 -6 5 -161 33 -162 29 -1 0 -14 -18 -29 -40 -88 -119 -277 -68 -294
79 l-5 45 253 0 253 0 -5 103 c-5 122 -35 201 -101 265 -78 76 -219 117 -320
92z m162 -179 c38 -26 61 -63 68 -104 l6 -37 -157 0 c-176 0 -173 -2 -136 76
42 85 148 117 219 65z"/>
<path d="M5312 1756 c-101 -26 -179 -105 -201 -203 l-9 -43 87 0 87 0 16 33
c28 58 104 82 172 53 52 -22 76 -60 76 -120 l0 -52 -138 0 -139 1 -68 -35
c-50 -25 -78 -47 -100 -78 -27 -40 -30 -51 -30 -120 1 -86 13 -118 67 -171 97
-97 271 -98 380 -2 l36 31 7 -40 7 -40 90 0 90 0 -7 28 c-4 15 -10 151 -14
302 -7 306 -10 317 -83 387 -72 69 -210 98 -326 69z m196 -472 c28 -6 32 -11
32 -38 0 -44 -39 -106 -80 -127 -64 -35 -169 -18 -204 32 -34 50 -6 119 57
139 31 9 133 6 195 -6z"/>
<path d="M6158 1747 c-48 -14 -63 -23 -110 -66 l-28 -25 0 42 0 42 -93 0 -93
0 8 -100 c4 -55 6 -228 5 -385 l-2 -285 98 0 97 0 -7 43 c-5 23 -8 137 -8 252
0 227 3 242 58 294 68 63 204 34 234 -50 8 -23 12 -118 12 -286 l1 -253 96 0
96 0 -4 293 c-3 271 -4 295 -24 337 -56 121 -201 185 -336 147z"/>
</g>
</svg>
